<svg xmlns="http://www.w3.org/2000/svg" width="35" height="35" viewBox="0 0 35 35" fill="none">
  <path d="M5.63503 23.9972C6.4308 27.1803 6.82869 28.7717 8.01545 29.6984C9.20223 30.625 10.8427 30.625 14.1238 30.625H20.8768C24.1579 30.625 25.7984 30.625 26.9852 29.6984C28.172 28.7717 28.5698 27.1803 29.3656 23.9972C30.6167 18.9925 31.2423 16.4901 29.9287 14.8076C28.615 13.125 26.0357 13.125 20.8768 13.125H14.1238C8.96506 13.125 6.38571 13.125 5.07198 14.8076C4.30083 15.7952 4.19791 17.0654 4.4975 18.9583" stroke="#1A1A1A" stroke-width="3.75" stroke-linecap="round"/>
  <path d="M28.4375 13.8542L27.4015 10.0547C27.0021 8.5897 26.8023 7.85718 26.3926 7.3055C25.9846 6.75611 25.4301 6.33262 24.7928 6.08351C24.1528 5.83337 23.3936 5.83337 21.875 5.83337M6.5625 13.8542L7.5985 10.0547C7.99797 8.5897 8.1977 7.85718 8.60739 7.3055C9.0154 6.75611 9.56982 6.33262 10.2072 6.08351C10.8472 5.83337 11.6065 5.83337 13.125 5.83337" stroke="#1A1A1A" stroke-width="3.75"/>
  <path d="M13.125 5.83333C13.125 5.02792 13.7779 4.375 14.5833 4.375H20.4167C21.2221 4.375 21.875 5.02792 21.875 5.83333C21.875 6.63874 21.2221 7.29167 20.4167 7.29167H14.5833C13.7779 7.29167 13.125 6.63874 13.125 5.83333Z" stroke="#1A1A1A" stroke-width="3.75"/>
</svg>