<svg xmlns="http://www.w3.org/2000/svg" width="35" height="35" viewBox="0 0 35 35" fill="none">
  <path d="M17.5 8.02174L16.7119 8.78022C16.9181 8.99445 17.2027 9.11549 17.5 9.11549C17.7974 9.11549 18.0819 8.99445 18.2881 8.78022L17.5 8.02174ZM10.2092 23.9471C9.74282 23.5633 9.05354 23.6302 8.66968 24.0966C8.28582 24.563 8.35274 25.2523 8.81916 25.6362L10.2092 23.9471ZM3.41542 19.5584C3.70527 20.0884 4.36987 20.2831 4.89985 19.9932C5.42983 19.7032 5.62448 19.0387 5.33462 18.5087L3.41542 19.5584ZM4.01044 13.3249C4.01044 10.1882 5.78285 7.55783 8.20221 6.45194C10.5526 5.37757 13.7108 5.66209 16.7119 8.78022L18.2881 7.26327C14.727 3.56346 10.5935 2.95369 7.2928 4.46243C4.06106 5.93967 1.82294 9.36983 1.82294 13.3249H4.01044ZM12.3921 28.4373C13.1391 29.0262 13.941 29.6542 14.7537 30.129C15.5661 30.6037 16.4932 30.9896 17.5 30.9896V28.8021C17.0485 28.8021 16.5173 28.6261 15.8574 28.2403C15.1978 27.8549 14.5135 27.3242 13.7463 26.7194L12.3921 28.4373ZM22.608 28.4373C24.6884 26.7972 27.3479 24.918 29.434 22.5689C31.5576 20.1776 33.1771 17.2121 33.1771 13.3249H30.9896C30.9896 16.5295 29.6783 18.9995 27.7983 21.1164C25.8809 23.2754 23.464 24.977 21.2538 26.7194L22.608 28.4373ZM33.1771 13.3249C33.1771 9.36983 30.939 5.93967 27.7072 4.46243C24.4065 2.95369 20.273 3.56346 16.7119 7.26327L18.2881 8.78022C21.2892 5.66209 24.4474 5.37757 26.7978 6.45194C29.2171 7.55783 30.9896 10.1882 30.9896 13.3249H33.1771ZM21.2538 26.7194C20.4865 27.3242 19.8023 27.8549 19.1427 28.2403C18.4828 28.6261 17.9515 28.8021 17.5 28.8021V30.9896C18.5069 30.9896 19.4339 30.6037 20.2464 30.129C21.0591 29.6542 21.8609 29.0262 22.608 28.4373L21.2538 26.7194ZM13.7463 26.7194C12.5856 25.8045 11.4061 24.9321 10.2092 23.9471L8.81916 25.6362C10.03 26.6327 11.309 27.5835 12.3921 28.4373L13.7463 26.7194ZM5.33462 18.5087C4.51619 17.0123 4.01044 15.3173 4.01044 13.3249H1.82294C1.82294 15.713 2.43536 17.7664 3.41542 19.5584L5.33462 18.5087Z" fill="#1A1A1A"/>
</svg>